{"title":"Imminent Threat.2015.WEBRiP.XViD.ReLeNTLesS","uid":12682981,"size":1077644191,"categoryP":"video","categoryS":"movies","magnet":"?xt=urn:btih:1581f74c817682d8bd539b43d80df890dcc23237&amp;dn=Imminent+Threat.2015.WEBRiP.XViD.ReLeNTLesS&amp;tr=udp%3A%2F%2Ftracker.leechers-paradise.org%3A6969&amp;tr=udp%3A%2F%2Fzer0day.ch%3A1337&amp;tr=udp%3A%2F%2Fopen.demonii.com%3A1337&amp;tr=udp%3A%2F%2Ftracker.coppersurfer.tk%3A6969&amp;tr=udp%3A%2F%2Fexodus.desync.com%3A6969","seeders":0,"leechers":1,"uploader":"TvTeam","files":4,"time":1446574172,"description":"------------------------------------------------------------------------\r\n\r  https://www.torrenting.com\r\n\r\nSign up is OPEN - for time being. Come and have fun.\r\n\r\n------------------------------------------------------------------------P0STER\r\n[img]http://i.imgur.com/cHQ4TvU.png[/img]\r\n\r\niMDB: http://www.imdb.com/title/tt2731436/\r\n\r\nGeneral\r\nComplete name               : Imminent Threat.2015.WEBRiP.XViD.ReLeNTLesS.avi\r\nFormat                      : AVI\r\nFormat/Info                 : Audio Video Interleave\r\nFile size                   : 1 013 MiB\r\nDuration                    : 1h 14mn\r\nOverall bit rate            : 1 912 Kbps\r\n\r\nVideo\r\nID                          : 0\r\nFormat                      : MPEG-4 Visual\r\nFormat profile              : Advanced   \r\nFormat settings, BVOP       : 1\r\nFormat settings, QPel       : No\r\nFormat settings, GMC        : No warppoints\r\nFormat settings, Matrix     : Default (H.263)\r\nMuxing mode                 : Packed bitstream\r\nCodec ID                    : XVID\r\nCodec ID/Hint               : XviD\r\nDuration                    : 1h 14mn\r\nBit rate                    : 1 712 Kbps\r\nWidth                       : 720 pixels\r\nHeight                      : 304 pixels\r\nDisplay aspect ratio        : 2.35:1\r\nFrame rate                  : 23.976 fps\r\nColor space                 : YUV\r\nChroma subsampling          : 4:2:0\r\nBit depth                   : 8 bits\r\nScan type                   : Progressive\r\nCompression mode            : Lossy\r\nBits/(Pixel*Frame)          : 0.326\r\nStream size                 : 907 MiB (90%)\r\nWriting library             : XviD 1.2.1 (UTC 2008-12-04)\r\n\r\nAudio\r\nID                          : 1\r\nFormat                      : AC-3\r\nFormat/Info                 : Audio Coding 3\r\nMode extension              : CM (complete main)\r\nFormat settings, Endianness : Big\r\nCodec ID                    : 2000\r\nDuration                    : 1h 14mn\r\nBit rate mode               : Constant\r\nBit rate                    : 192 Kbps\r\nChannel(s)                  : 2 channels\r\nChannel positions           : Front: L R\r\nSampling rate               : 48.0 KHz\r\nCompression mode            : Lossy\r\nStream size                 : 102 MiB (10%)\r\nAlignment                   : Aligned on interleaves\r\nInterleave, duration        : 64 ms (1.53 video frames)\r\nInterleave, preload duratio : 192 ms\r\nTitle                       : Imminent Threat.2015.ReLeNTLesS.audio.2.0. English\r\nSample Included             : Yes\r\nSource                      : ReLeNTLesS 720p WEB-DL and a friend cheers brother :) \r\n\r\nPL0T\r\nJames Cromwell presents a feature documentary on the War on terror's impact on civil liberties and the strange coalition it may create between the progressive left and libertarian right on these issues.\r\n\r\nCAST\r\nDirector: Janek Ambros\r\nWriter: Janek Ambros\r\nStars: Anwar Al-Awlaki, Julian Assange, Joe Biden \r\n\r\nNOTE\r\nRipped From own source thanks to M0RPH cheers brother :) No subs needed. \r\n\r\nSCREENS\r\n[img]http://i.imgur.com/ZEJixhj.png[/img]\r\n[img]http://i.imgur.com/Uk6UfF7.png[/img]\r\n[img]http://i.imgur.com/KMhb6QB.png[/img]\r\n[img]http://i.imgur.com/oVG5xnf.png[/img]\r\n[img]http://i.imgur.com/HAyDaES.png[/img]\r\n[img]http://i.imgur.com/C6mjADd.png[/img]\r\n[img]http://i.imgur.com/h9w2e2h.png[/img]\r\n[img]http://i.imgur.com/YHCT519.png[/img]\r\n\r\nTRAiLER\r\n\r\nGREETZ\r\n\r\nHIVE-CM8, Blackjesus, M0RPH, M00SE, MiLLENiUM,\r\n\r\nMANiX, TiTAN, Anonymous, TuX, \r\n\r\nACAB, KingStoner, FooKas, 4PlayHD, \r\n\r\nSoZE, GodFather, Cld","torrent":{"xt":"urn:btih:1581f74c817682d8bd539b43d80df890dcc23237","amp;dn":"Imminent+Threat.2015.WEBRiP.XViD.ReLeNTLesS","amp;tr":["udp%3A%2F%2Ftracker.leechers-paradise.org%3A6969","udp%3A%2F%2Fzer0day.ch%3A1337","udp%3A%2F%2Fopen.demonii.com%3A1337","udp%3A%2F%2Ftracker.coppersurfer.tk%3A6969","udp%3A%2F%2Fexodus.desync.com%3A6969"],"infoHash":"1581f74c817682d8bd539b43d80df890dcc23237","infoHashBuffer":{"type":"Buffer","data":[21,129,247,76,129,118,130,216,189,83,155,67,216,13,248,144,220,194,50,55]},"announce":[],"urlList":[]}}